<svg xmlns="http://www.w3.org/2000/svg" width="256" height="256"><path fill-opacity=".016" d="M0 128.004v128.004l128.25-.254 128.25-.254.254-127.75L257.008 0H0v128.004m.485.496c0 70.4.119 99.053.265 63.672.146-35.38.146-92.98 0-128C.604 29.153.485 58.1.485 128.5" fill="#ffd600" fill-rule="evenodd"/><path fill-opacity=".179" d="M105.5 1.586C79.995 6.071 56.431 18.497 37.464 37.464 12.578 62.35 0 92.746 0 128c0 35.254 12.578 65.65 37.464 90.536C62.35 243.422 92.746 256 128 256c35.254 0 65.65-12.578 90.536-37.464 18.885-18.884 31.701-43.064 35.532-67.036.704-4.4 1.651-8.428 2.106-8.95 1.056-1.215 1.092-30.832.036-30.18-.435.269-1.36-3.127-2.055-7.547-5.917-37.606-33.479-74.048-69.655-92.099-9.662-4.82-23.22-9.197-34.426-11.113-11.553-1.974-33.416-1.987-44.574-.025M.402 128c0 8.525.154 12.012.341 7.75.188-4.262.188-11.237 0-15.5-.187-4.263-.341-.775-.341 7.75" fill="#ffd600" fill-rule="evenodd"/><path fill-opacity=".277" d="M108 1.471c-13.248 2.237-23.215 5.454-35.54 11.47C45.385 26.156 26.145 45.397 12.945 72.46 4.062 90.671.008 108.075.008 128c0 19.925 4.054 37.329 12.937 55.54 13.202 27.066 32.449 46.313 59.515 59.515 28.776 14.036 59.556 16.703 91.54 7.93 17.423-4.778 40.681-18.629 54.519-32.466 18.606-18.607 33.4-48 36.08-71.687.365-3.232 1.055-6.118 1.533-6.413.477-.296.868-6.387.868-13.537 0-7.152-.393-12.757-.873-12.46-.48.296-1.17-2.087-1.533-5.296-2.675-23.644-17.483-53.052-36.075-71.645C204.681 23.644 181.423 9.793 164 5.015c-17.963-4.927-39.671-6.301-56-3.544m10.702 42.161c-.386.386-.702 20.475-.702 44.642v43.941l27.143 32.642c14.929 17.954 27.51 33.052 27.96 33.553.927 1.032 6.193-2.309 12.765-8.1l4.368-3.849-25.868-30.98L138.5 124.5 138 84l-.5-40.5-9.048-.285c-4.977-.157-9.365.031-9.75.417M.392 128c0 7.425.157 10.463.35 6.75.192-3.713.192-9.787 0-13.5-.193-3.713-.35-.675-.35 6.75" fill="#ffd600" fill-rule="evenodd"/><path fill-opacity=".678" d="M111.5 1.477C81.996 5.625 58.845 17.12 37.983 37.983 15.855 60.111 4.378 84.482.89 116.75c-2.995 27.709 4.861 57.978 21.606 83.25 6.384 9.635 23.869 27.12 33.504 33.504 25.271 16.745 55.177 24.491 83.25 21.563 23.238-2.424 41.819-9.019 60.75-21.563 9.635-6.384 27.12-23.869 33.504-33.504 11.854-17.889 19.583-38.894 21.155-57.49.349-4.131 1.018-7.51 1.488-7.51.469 0 .846-3.713.838-8.25-.009-4.785-.365-7.699-.848-6.937-.51.803-1.081-1.626-1.473-6.26-.761-9.006-1.869-14.013-5.773-26.104-6.14-19.012-15.639-34.232-30.874-49.466-15.224-15.224-30.416-24.709-49.466-30.885C147.83.382 131.054-1.271 111.5 1.477m9.75 41.206l-4.25.432v88.705l28.159 33.84a48631.05 48631.05 0 0128.453 34.21c.484.608 9.633-6.445 13.294-10.249 3.036-3.154 3.254-3.732 2-5.316-.773-.977-12.318-14.897-25.656-30.932L139 124.216V43h-2.36c-1.299 0-4.336-.168-6.75-.374-2.415-.206-6.302-.18-8.64.057M.349 128c0 4.675.173 6.588.383 4.25.211-2.338.211-6.163 0-8.5-.21-2.338-.383-.425-.383 4.25" fill="#ffd600" fill-rule="evenodd"/></svg>