<svg width="24" height="24" xmlns="http://www.w3.org/2000/svg">
 <title/>

 <g>
  <title>background</title>
  <rect fill="none" id="canvas_background" height="402" width="582" y="-1" x="-1"/>
 </g>
 <g>
  <title>Layer 1</title>
  <path id="svg_1" fill="#263238" d="m21.71,5.29l-3,-3a1,1 0 0 0 -1.09,-0.21a1,1 0 0 0 -0.62,0.92l0,2l-12,0a3,3 0 0 0 -3,3l0,3a1,1 0 0 0 2,0l0,-3a1,1 0 0 1 1,-1l12,0l0,2a1,1 0 0 0 0.62,0.92a0.84,0.84 0 0 0 0.38,0.08a1,1 0 0 0 0.71,-0.29l3,-3a1,1 0 0 0 0,-1.42z"/>
  <path id="svg_2" fill="#263238" d="m21,12a1,1 0 0 0 -1,1l0,3a1,1 0 0 1 -1,1l-12,0l0,-2a1,1 0 0 0 -0.62,-0.92a1,1 0 0 0 -1.09,0.21l-3,3a1,1 0 0 0 0,1.42l3,3a1,1 0 0 0 0.71,0.29a0.84,0.84 0 0 0 0.38,-0.08a1,1 0 0 0 0.62,-0.92l0,-2l12,0a3,3 0 0 0 3,-3l0,-3a1,1 0 0 0 -1,-1z"/>
 </g>
</svg>